<svg xmlns="http://www.w3.org/2000/svg" xmlns:xlink="http://www.w3.org/1999/xlink" width="512" height="512" viewBox="0 0 512 512" fill="none"><g  clip-path="url(#clip-path-0_1)"><path     fill="#FFFFFF" fill-opacity="0" d="M0 512L512 512L512 0L0 0L0 512Z"></path><g  mask="url(#mask-0_2)"><rect x="278" y="-223.99996948242188" width="203.64675837652237" height="707.7897024201845" transform="rotate(45 278 -223.99996948242188)"   fill="#2786F8" ></rect><rect x="544.5" y="63.50001525878906" width="174.6553695582807" height="660.4156149621369" transform="rotate(45 544.5 63.50001525878906)"   fill="url(#linear_fill_0_9)" ></rect><rect x="627" y="205" width="142.83556710228433" height="638.4950673743032" transform="rotate(45 627 205)"   fill="#FFB300" ></rect><path d="M644 5.99823L348.42 5.99823C321.898 5.99823 296.464 16.5346 277.71 35.2882L-193 505.998L102.58 505.998C129.102 505.998 154.536 495.462 173.29 476.708L644 5.99823Z"></path><g mask="url(#mask-0_7)"><rect x="455.5" y="-142.49996948242188" width="238.29493131190065" height="784.1584708711049" transform="rotate(45 455.5 -142.49996948242188)"   fill="url(#linear_fill_0_4)" ></rect></g></g></g><g ><g filter="url(#filter_0_13)"><path     fill="#FFFFFF"  d="M28.36 265.52L39.03 265.52L42.66 245.28L32.1 245.28L32.1 235.82L44.31 235.82L47.94 215.8L57.95 215.8L54.32 235.82L69.61 235.82L73.24 215.8L83.25 215.8L79.62 235.82L88.64 235.82L88.64 245.28L77.97 245.28L74.34 265.52L84.79 265.52L84.79 274.87L72.69 274.87L69.06 295L59.05 295L62.68 274.87L47.39 274.87L43.76 295L33.75 295L37.38 274.87L28.36 274.87L28.36 265.52ZM49.04 265.52L64.33 265.52L67.96 245.28L52.67 245.28L49.04 265.52ZM98.21 257.05Q98.21 251.55 99.695 247.205Q101.18 242.86 103.93 239.78Q106.68 236.7 110.53 235.05Q114.38 233.4 119 233.4Q125.6 233.4 129.89 236.48Q134.18 239.56 135.17 244.95L136.27 244.95Q136.16 243.08 136.05 241.21Q135.83 239.56 135.775 237.745Q135.72 235.93 135.72 234.5L135.72 215.8L149.47 215.8L149.47 295L136.27 295L136.27 284.44L135.17 284.44Q134.18 289.94 129.89 293.02Q125.6 296.1 119 296.1Q114.38 296.1 110.53 294.45Q106.68 292.8 103.93 289.665Q101.18 286.53 99.695 282.075Q98.21 277.62 98.21 272.12L98.21 257.05ZM111.96 257.38L111.96 271.79Q111.96 277.4 115.15 280.755Q118.34 284.11 123.95 284.11Q129.34 284.11 132.53 280.81Q135.72 277.51 135.72 272.12L135.72 257.38Q135.72 251.88 132.475 248.58Q129.23 245.28 123.95 245.28Q118.34 245.28 115.15 248.525Q111.96 251.77 111.96 257.38ZM164.21 257.05Q164.21 251.66 166.08 247.26Q167.95 242.86 171.36 239.78Q174.77 236.7 179.61 235.05Q184.45 233.4 190.5 233.4Q196.44 233.4 201.225 235.105Q206.01 236.81 209.42 239.89Q212.83 242.97 214.7 247.37Q216.57 251.77 216.57 257.16L216.57 268.16L177.85 268.16L177.85 272.12Q177.85 278.28 181.205 281.69Q184.56 285.1 190.5 285.1Q194.9 285.1 198.09 283.67Q201.28 282.24 202.6 279.71L216.13 279.71Q215.14 283.45 212.83 286.475Q210.52 289.5 207.165 291.645Q203.81 293.79 199.575 294.945Q195.34 296.1 190.5 296.1Q184.56 296.1 179.665 294.45Q174.77 292.8 171.36 289.665Q167.95 286.53 166.08 282.13Q164.21 277.73 164.21 272.34L164.21 257.05ZM177.85 258.92L203.15 258.92L203.15 257.16Q203.15 251.11 199.795 247.755Q196.44 244.4 190.5 244.4Q184.56 244.4 181.205 247.755Q177.85 251.11 177.85 257.05L177.85 258.92ZM229.44 253.64L229.44 241.21L246.05 241.21L246.05 233.07Q246.05 225.15 251.275 220.475Q256.5 215.8 265.3 215.8L283.01 215.8L283.01 227.9L265.63 227.9Q262.99 227.9 261.45 229.385Q259.91 230.87 259.91 233.4L259.91 241.21L283.01 241.21L283.01 253.64L259.91 253.64L259.91 295L246.05 295L246.05 253.64L229.44 253.64ZM298.63 282.46L320.3 282.46L320.3 246.93L301.38 246.93L301.38 234.5L333.5 234.5L333.5 282.46L350.99 282.46L350.99 295L298.63 295L298.63 282.46ZM316.34 218.11Q316.34 214.92 318.485 212.885Q320.63 210.85 324.15 210.85L327.01 210.85Q330.53 210.85 332.675 212.885Q334.82 214.92 334.82 218.11Q334.82 221.41 332.675 223.39Q330.53 225.37 326.9 225.37L324.15 225.37Q320.63 225.37 318.485 223.39Q316.34 221.41 316.34 218.11ZM363.42 234.5L376.4 234.5L376.4 244.95L377.39 244.95Q378.49 239.34 382.67 236.37Q386.85 233.4 393.45 233.4Q402.8 233.4 408.08 239.45Q413.36 245.5 413.36 255.51L413.36 295L399.61 295L399.61 257.16Q399.61 251.55 396.64 248.415Q393.67 245.28 388.5 245.28Q383.22 245.28 380.195 248.525Q377.17 251.77 377.17 257.38L377.17 295L363.42 295L363.42 234.5ZM428.21 257.05Q428.21 251.66 430.08 247.26Q431.95 242.86 435.36 239.78Q438.77 236.7 443.61 235.05Q448.45 233.4 454.5 233.4Q460.44 233.4 465.225 235.105Q470.01 236.81 473.42 239.89Q476.83 242.97 478.7 247.37Q480.57 251.77 480.57 257.16L480.57 268.16L441.85 268.16L441.85 272.12Q441.85 278.28 445.205 281.69Q448.56 285.1 454.5 285.1Q458.9 285.1 462.09 283.67Q465.28 282.24 466.6 279.71L480.13 279.71Q479.14 283.45 476.83 286.475Q474.52 289.5 471.165 291.645Q467.81 293.79 463.575 294.945Q459.34 296.1 454.5 296.1Q448.56 296.1 443.665 294.45Q438.77 292.8 435.36 289.665Q431.95 286.53 430.08 282.13Q428.21 277.73 428.21 272.34L428.21 257.05ZM441.85 258.92L467.15 258.92L467.15 257.16Q467.15 251.11 463.795 247.755Q460.44 244.4 454.5 244.4Q448.56 244.4 445.205 247.755Q441.85 251.11 441.85 257.05L441.85 258.92Z"></path></g></g><defs><clipPath id="clip-path-0_1"><path d="M0 512L512 512L512 0L0 0L0 512Z" fill="white"/></clipPath><mask id="mask-0_2" style="mask-type:alpha" maskUnits="userSpaceOnUse"><path     fill="#CCCCCC"  d="M106 6L406 6C461.228 6 506 50.7715 506 106L506 406C506 461.228 461.228 506 406 506L106 506C50.7715 506 6 461.228 6 406L6 106C6 50.7715 50.7715 6 106 6Z"></path></mask><linearGradient id="linear_fill_0_9" x1="662.1705621325004" y1="77.16401433235568" x2="647.6165301872089" y2="738.4579820623923" gradientUnits="userSpaceOnUse"><stop offset="0.2431" stop-color="#DB0000"  /><stop offset="0.882" stop-color="#FFFB00"  /></linearGradient><mask id="mask-0_7" style="mask-type:alpha" maskUnits="userSpaceOnUse"><path fill="white" d="M644 5.99823L348.42 5.99823C321.898 5.99823 296.464 16.5346 277.71 35.2882L-193 505.998L102.58 505.998C129.102 505.998 154.536 495.462 173.29 476.708L644 5.99823Z"></path></mask><linearGradient id="linear_fill_0_4" x1="616.0464440727668" y1="-126.27573072009872" x2="596.1893274465461" y2="658.9256709172647" gradientUnits="userSpaceOnUse"><stop offset="0.125" stop-color="#CD00DB"  /><stop offset="0.9167" stop-color="#00A6FF"  /></linearGradient><filter id="filter_0_13" x="26.360000610351562" y="208.84999084472656" width="472.2100067138672" height="105.25000762939453" filterUnits="userSpaceOnUse" color-interpolation-filters="sRGB"><feFlood flood-opacity="0" result="feFloodId_0_13"/><feColorMatrix in="SourceAlpha" type="matrix" values="0 0 0 0 0 0 0 0 0 0 0 0 0 0 0 0 0 0 127 0" result="hardAlpha_0_13"/><feOffset dx="8" dy="8"/><feGaussianBlur stdDeviation="5"/><feComposite in2="hardAlpha_0_13" operator="out"/><feColorMatrix type="matrix" values="0 0 0 0 0 0 0 0 0 0 0 0 0 0 0 0 0 0 0.64 0"/><feBlend mode="normal" in2="feFloodId_0_13" result="dropShadow_1_0_13"/><feBlend mode="normal" in="SourceGraphic" in2="dropShadow_1_0_13" result="shape_0_13"/></filter></defs></svg>